#N canvas 913 299 624 227 10;
#N canvas 332 224 577 424 video 0;
#X obj 189 190 pix_film;
#X obj 181 286 pix_texture;
#X floatatom 279 311 5 0 0 0 - - -;
#X floatatom 227 313 5 0 0 0 - - -;
#X obj 181 347 rectangle 17.76 4;
#X obj 250 221 unpack 0 0 0;
#X floatatom 281 261 5 0 0 0 - - -;
#X floatatom 365 260 5 0 0 0 - - -;
#X floatatom 320 260 5 0 0 0 - - -;
#X obj 309 198 bng 15 250 50 0 empty empty empty 17 7 0 10 -260097
-261682 -1;
#X floatatom 226 165 5 0 0 0 - - -;
#X obj 138 20 gemhead 1;
#X msg 220 135 auto 1;
#X msg 163 57 open \$1;
#X obj 429 142 print;
#X obj 427 71 openpanel;
#X obj 493 31 inlet;
#X obj 376 7 inlet;
#X connect 0 0 1 0;
#X connect 0 1 5 0;
#X connect 0 2 9 0;
#X connect 1 0 4 0;
#X connect 2 0 4 2;
#X connect 3 0 4 1;
#X connect 5 0 6 0;
#X connect 5 1 8 0;
#X connect 5 2 7 0;
#X connect 9 0 10 0;
#X connect 10 0 0 1;
#X connect 11 0 0 0;
#X connect 12 0 0 0;
#X connect 13 0 0 0;
#X connect 15 0 14 0;
#X connect 15 0 13 0;
#X connect 16 0 15 0;
#X connect 17 0 13 0;
#X connect 17 0 12 0;
#X restore 443 86 pd video;
#X obj 489 46 bng 15 250 50 0 empty empty Seleccion_Video 17 7 0 10
-232576 -159808 -45076;
#X obj 441 32 bng 15 250 50 0 empty empty Play 17 7 0 10 -261234 -258113
-86277;
#N canvas 439 288 476 373 fondo 0;
#X obj 40 261 netreceive 1234;
#X floatatom 110 39 1 0 1 0 - - -;
#X floatatom 87 39 1 0 1 0 - - -;
#X floatatom 134 39 1 0 1 0 - - -;
#X floatatom 64 39 1 0 1 0 - c -;
#X obj 152 301 alpha;
#X floatatom 40 287 5 0 1 0 - - -;
#X obj 188 283 tgl 15 0 empty empty empty 17 7 0 10 -262144 -1 -1 0
1;
#X obj 41 17 gemhead 2;
#X obj 41 76 colorRGB 0 0 1 0;
#X obj 83 108 inlet;
#X obj 124 108 inlet;
#X obj 168 108 inlet;
#X obj 212 108 inlet;
#X msg 279 92 -2;
#X msg 318 92 -2.49;
#X obj 279 113 s x;
#X obj 255 11 loadbang;
#X obj 319 114 s y;
#X obj 152 245 translateXYZ 0 0 0;
#X msg 387 94 8.65;
#X msg 426 94 -1.19;
#X obj 391 116 s w;
#X obj 432 117 s h;
#X obj 322 329 rectangle 0 0;
#X connect 0 0 6 0;
#X connect 1 0 9 3;
#X connect 2 0 9 2;
#X connect 3 0 9 4;
#X connect 4 0 9 1;
#X connect 5 0 24 0;
#X connect 6 0 5 0;
#X connect 7 0 5 1;
#X connect 8 0 9 0;
#X connect 9 0 19 0;
#X connect 10 0 19 1;
#X connect 11 0 19 2;
#X connect 12 0 24 1;
#X connect 13 0 24 2;
#X connect 14 0 16 0;
#X connect 14 0 19 1;
#X connect 15 0 18 0;
#X connect 15 0 19 2;
#X connect 17 0 14 0;
#X connect 17 0 15 0;
#X connect 17 0 20 0;
#X connect 17 0 21 0;
#X connect 19 0 5 0;
#X connect 20 0 22 0;
#X connect 20 0 24 1;
#X connect 21 0 23 0;
#X connect 21 0 24 2;
#X restore 278 111 pd fondo;
#X floatatom 278 20 5 0 0 0 x x -;
#X floatatom 293 41 5 0 0 0 y y -;
#X floatatom 308 60 5 0 0 0 w w -;
#X floatatom 323 79 5 0 0 0 h h -;
#N canvas 303 339 455 352 ventana 0;
#X msg 37 85 0 \, destroy;
#X msg 37 188 reset;
#X obj 125 51 inlet;
#X msg 126 188 dimen \$1 \$2 \, border 0 \, offset \$3 \$4 \, create
\, 1;
#X obj 37 51 inlet;
#X msg 200 247 frame \$1;
#X obj 200 213 inlet;
#X obj 105 275 gemwin;
#X connect 0 0 7 0;
#X connect 1 0 7 0;
#X connect 2 0 3 0;
#X connect 3 0 7 0;
#X connect 4 0 0 0;
#X connect 5 0 7 0;
#X connect 6 0 5 0;
#X restore 60 107 pd ventana;
#X obj 24 45 bng 15 250 50 0 empty empty Cerrar 17 7 0 10 -258113 -261234
-86277;
#X obj 88 9 bng 15 250 50 0 empty empty Start 17 7 0 10 -4034 -204786
-13381;
#X floatatom 120 75 5 15 40 1 fps - -;
#X msg 88 46 400 90 0 800;
#X connect 1 0 0 1;
#X connect 2 0 0 0;
#X connect 4 0 3 0;
#X connect 5 0 3 1;
#X connect 6 0 3 2;
#X connect 7 0 3 3;
#X connect 9 0 8 0;
#X connect 10 0 12 0;
#X connect 11 0 8 2;
#X connect 12 0 8 1;
